<?xml version="1.0" encoding="UTF-8" standalone="no"?>
<!DOCTYPE svg PUBLIC "-//W3C//DTD SVG 1.1//EN"
 "http://www.w3.org/Graphics/SVG/1.1/DTD/svg11.dtd">
<!-- Generated by graphviz version 14.1.3 (20260303.0454)
 -->
<!-- Title: deployable Pages: 1 -->
<svg width="660pt" height="387pt"
 viewBox="0.00 0.00 660.00 387.00" xmlns="http://www.w3.org/2000/svg" xmlns:xlink="http://www.w3.org/1999/xlink">
<g id="graph0" class="graph" transform="scale(1 1) rotate(0) translate(4 383.45)">
<title>deployable</title>
<polygon fill="white" stroke="none" points="-4,4 -4,-383.45 656.06,-383.45 656.06,4 -4,4"/>
<text xml:space="preserve" text-anchor="middle" x="326.03" y="-7.2" font-family="Times New Roman,serif" font-size="14.00">deployable</text>
<!-- deployable:assembleConclusion -->
<g id="deployable:assembleConclusion" class="node">
<title>deployable:assembleConclusion</title>
<path fill="lightgrey" stroke="black" d="M402.18,-379.45C402.18,-379.45 298.43,-379.45 298.43,-379.45 292.43,-379.45 286.43,-373.45 286.43,-367.45 286.43,-367.45 286.43,-355.45 286.43,-355.45 286.43,-349.45 292.43,-343.45 298.43,-343.45 298.43,-343.45 402.18,-343.45 402.18,-343.45 408.18,-343.45 414.18,-349.45 414.18,-355.45 414.18,-355.45 414.18,-367.45 414.18,-367.45 414.18,-373.45 408.18,-379.45 402.18,-379.45"/>
<text xml:space="preserve" text-anchor="middle" x="350.3" y="-356.4" font-family="Times New Roman,serif" font-size="14.00">Model is deployable</text>
</g>
<!-- deployable:fair:c -->
<g id="deployable:fair:c" class="node">
<title>deployable:fair:c</title>
<polygon fill="none" stroke="#0072b2" points="331.43,-235.45 241.18,-235.45 241.18,-199.45 331.43,-199.45 331.43,-235.45"/>
<text xml:space="preserve" text-anchor="middle" x="286.3" y="-212.4" font-family="Times New Roman,serif" font-size="14.00">Model is Fair</text>
</g>
<!-- deployable:assembleStrategy -->
<g id="deployable:assembleStrategy" class="node">
<title>deployable:assembleStrategy</title>
<polygon fill="#f0c27f" stroke="black" points="459.24,-289.45 404.77,-307.45 295.83,-307.45 241.37,-289.45 295.83,-271.45 404.77,-271.45 459.24,-289.45"/>
<text xml:space="preserve" text-anchor="middle" x="350.3" y="-284.4" font-family="Times New Roman,serif" font-size="14.00">All conditions are met</text>
</g>
<!-- deployable:fair:c&#45;&gt;deployable:assembleStrategy -->
<g id="edge8" class="edge">
<title>deployable:fair:c&#45;&gt;deployable:assembleStrategy</title>
<path fill="none" stroke="black" d="M302.12,-235.76C309.64,-243.98 318.78,-253.97 327.06,-263.03"/>
<polygon fill="black" stroke="black" points="324.31,-265.21 333.64,-270.23 329.48,-260.49 324.31,-265.21"/>
</g>
<!-- deployable:fair:dp_threshold -->
<g id="deployable:fair:dp_threshold" class="node">
<title>deployable:fair:dp_threshold</title>
<polygon fill="#f0c27f" stroke="black" points="366.61,-129.98 274.96,-163.45 91.65,-163.45 0,-129.98 91.65,-96.5 274.96,-96.5 366.61,-129.98"/>
<text xml:space="preserve" text-anchor="middle" x="183.3" y="-133.18" font-family="Times New Roman,serif" font-size="14.00">Demographic Parity Difference is less</text>
<text xml:space="preserve" text-anchor="middle" x="183.3" y="-116.68" font-family="Times New Roman,serif" font-size="14.00">than 0.2</text>
</g>
<!-- deployable:fair:dp_threshold&#45;&gt;deployable:fair:c -->
<g id="edge2" class="edge">
<title>deployable:fair:dp_threshold&#45;&gt;deployable:fair:c</title>
<path fill="none" stroke="black" d="M222.83,-163.78C234.06,-173.1 246.1,-183.09 256.64,-191.84"/>
<polygon fill="black" stroke="black" points="254.36,-194.5 264.3,-198.19 258.83,-189.11 254.36,-194.5"/>
</g>
<!-- deployable:unified_0 -->
<g id="deployable:unified_0" class="node">
<title>deployable:unified_0</title>
<polygon fill="#9ecae1" stroke="black" points="281.93,-60.5 170.68,-60.5 170.68,-24.5 287.93,-24.5 287.93,-54.5 281.93,-60.5"/>
<polyline fill="none" stroke="black" points="281.93,-60.5 281.93,-54.5"/>
<polyline fill="none" stroke="black" points="287.93,-54.5 281.93,-54.5"/>
<text xml:space="preserve" text-anchor="middle" x="229.3" y="-37.45" font-family="Times New Roman,serif" font-size="14.00">Model is available</text>
</g>
<!-- deployable:unified_0&#45;&gt;deployable:fair:dp_threshold -->
<g id="edge4" class="edge">
<title>deployable:unified_0&#45;&gt;deployable:fair:dp_threshold</title>
<path fill="none" stroke="black" d="M219.99,-60.8C216.03,-68.17 211.21,-77.13 206.38,-86.1"/>
<polygon fill="black" stroke="black" points="203.35,-84.35 201.69,-94.81 209.51,-87.66 203.35,-84.35"/>
</g>
<!-- deployable:perf:acc_threshold -->
<g id="deployable:perf:acc_threshold" class="node">
<title>deployable:perf:acc_threshold</title>
<polygon fill="#f0c27f" stroke="black" points="652.06,-129.98 585.18,-147.98 451.42,-147.98 384.54,-129.98 451.42,-111.98 585.18,-111.98 652.06,-129.98"/>
<text xml:space="preserve" text-anchor="middle" x="518.3" y="-124.93" font-family="Times New Roman,serif" font-size="14.00">Accuracy is greater than 0.8</text>
</g>
<!-- deployable:unified_0&#45;&gt;deployable:perf:acc_threshold -->
<g id="edge6" class="edge">
<title>deployable:unified_0&#45;&gt;deployable:perf:acc_threshold</title>
<path fill="none" stroke="black" d="M288.14,-60.9C334.63,-74.65 399.63,-93.88 448.71,-108.39"/>
<polygon fill="black" stroke="black" points="447.52,-111.69 458.1,-111.17 449.51,-104.98 447.52,-111.69"/>
</g>
<!-- deployable:unified_1 -->
<g id="deployable:unified_1" class="node">
<title>deployable:unified_1</title>
<polygon fill="#9ecae1" stroke="black" points="537.8,-60.5 398.8,-60.5 398.8,-24.5 543.8,-24.5 543.8,-54.5 537.8,-60.5"/>
<polyline fill="none" stroke="black" points="537.8,-60.5 537.8,-54.5"/>
<polyline fill="none" stroke="black" points="543.8,-54.5 537.8,-54.5"/>
<text xml:space="preserve" text-anchor="middle" x="471.3" y="-37.45" font-family="Times New Roman,serif" font-size="14.00">Test dataset is available</text>
</g>
<!-- deployable:unified_1&#45;&gt;deployable:fair:dp_threshold -->
<g id="edge5" class="edge">
<title>deployable:unified_1&#45;&gt;deployable:fair:dp_threshold</title>
<path fill="none" stroke="black" d="M412.68,-60.9C378.7,-70.98 334.81,-84.01 294.53,-95.97"/>
<polygon fill="black" stroke="black" points="293.59,-92.59 285,-98.79 295.58,-99.3 293.59,-92.59"/>
</g>
<!-- deployable:unified_1&#45;&gt;deployable:perf:acc_threshold -->
<g id="edge7" class="edge">
<title>deployable:unified_1&#45;&gt;deployable:perf:acc_threshold</title>
<path fill="none" stroke="black" d="M480.81,-60.8C487.31,-72.61 496.05,-88.51 503.46,-101.98"/>
<polygon fill="black" stroke="black" points="500.19,-103.3 508.08,-110.38 506.33,-99.93 500.19,-103.3"/>
</g>
<!-- deployable:perf:c -->
<g id="deployable:perf:c" class="node">
<title>deployable:perf:c</title>
<polygon fill="none" stroke="#0072b2" points="531.3,-235.45 401.3,-235.45 401.3,-199.45 531.3,-199.45 531.3,-235.45"/>
<text xml:space="preserve" text-anchor="middle" x="466.3" y="-212.4" font-family="Times New Roman,serif" font-size="14.00">Model is Performant</text>
</g>
<!-- deployable:perf:c&#45;&gt;deployable:assembleStrategy -->
<g id="edge9" class="edge">
<title>deployable:perf:c&#45;&gt;deployable:assembleStrategy</title>
<path fill="none" stroke="black" d="M437.33,-235.94C422.55,-244.86 404.38,-255.82 388.47,-265.42"/>
<polygon fill="black" stroke="black" points="386.96,-262.25 380.2,-270.41 390.57,-268.24 386.96,-262.25"/>
</g>
<!-- deployable:perf:acc_threshold&#45;&gt;deployable:perf:c -->
<g id="edge3" class="edge">
<title>deployable:perf:acc_threshold&#45;&gt;deployable:perf:c</title>
<path fill="none" stroke="black" d="M507.78,-148.27C500.59,-160.09 490.92,-175.99 482.72,-189.46"/>
<polygon fill="black" stroke="black" points="479.8,-187.53 477.6,-197.89 485.78,-191.16 479.8,-187.53"/>
</g>
<!-- deployable:assembleStrategy&#45;&gt;deployable:assembleConclusion -->
<g id="edge1" class="edge">
<title>deployable:assembleStrategy&#45;&gt;deployable:assembleConclusion</title>
<path fill="none" stroke="black" d="M350.3,-307.76C350.3,-315.05 350.3,-323.73 350.3,-331.92"/>
<polygon fill="black" stroke="black" points="346.8,-331.83 350.3,-341.83 353.8,-331.83 346.8,-331.83"/>
</g>
</g>
</svg>
