<?xml version="1.0" encoding="UTF-8" standalone="no"?>
<!DOCTYPE svg PUBLIC "-//W3C//DTD SVG 1.1//EN"
 "http://www.w3.org/Graphics/SVG/1.1/DTD/svg11.dtd">
<!-- Generated by graphviz version 14.1.3 (20260303.0454)
 -->
<!-- Title: fair Pages: 1 -->
<svg width="375pt" height="243pt"
 viewBox="0.00 0.00 375.00 243.00" xmlns="http://www.w3.org/2000/svg" xmlns:xlink="http://www.w3.org/1999/xlink">
<g id="graph0" class="graph" transform="scale(1 1) rotate(0) translate(4 239.45)">
<title>fair</title>
<polygon fill="white" stroke="none" points="-4,4 -4,-239.45 370.61,-239.45 370.61,4 -4,4"/>
<text xml:space="preserve" text-anchor="middle" x="183.3" y="-7.2" font-family="Times New Roman,serif" font-size="14.00">fair</text>
<!-- fair:c -->
<g id="fair:c" class="node">
<title>fair:c</title>
<path fill="lightgrey" stroke="black" d="M216.43,-235.45C216.43,-235.45 150.18,-235.45 150.18,-235.45 144.18,-235.45 138.18,-229.45 138.18,-223.45 138.18,-223.45 138.18,-211.45 138.18,-211.45 138.18,-205.45 144.18,-199.45 150.18,-199.45 150.18,-199.45 216.43,-199.45 216.43,-199.45 222.43,-199.45 228.43,-205.45 228.43,-211.45 228.43,-211.45 228.43,-223.45 228.43,-223.45 228.43,-229.45 222.43,-235.45 216.43,-235.45"/>
<text xml:space="preserve" text-anchor="middle" x="183.3" y="-212.4" font-family="Times New Roman,serif" font-size="14.00">Model is Fair</text>
</g>
<!-- fair:dp_threshold -->
<g id="fair:dp_threshold" class="node">
<title>fair:dp_threshold</title>
<polygon fill="#f0c27f" stroke="black" points="366.61,-129.98 274.96,-163.45 91.65,-163.45 0,-129.98 91.65,-96.5 274.96,-96.5 366.61,-129.98"/>
<text xml:space="preserve" text-anchor="middle" x="183.3" y="-133.18" font-family="Times New Roman,serif" font-size="14.00">Demographic Parity Difference is less</text>
<text xml:space="preserve" text-anchor="middle" x="183.3" y="-116.68" font-family="Times New Roman,serif" font-size="14.00">than 0.2</text>
</g>
<!-- fair:dp_threshold&#45;&gt;fair:c -->
<g id="edge1" class="edge">
<title>fair:dp_threshold&#45;&gt;fair:c</title>
<path fill="none" stroke="black" d="M183.3,-163.78C183.3,-171.69 183.3,-180.08 183.3,-187.78"/>
<polygon fill="black" stroke="black" points="179.8,-187.64 183.3,-197.64 186.8,-187.64 179.8,-187.64"/>
</g>
<!-- fair:model -->
<g id="fair:model" class="node">
<title>fair:model</title>
<polygon fill="#9ecae1" stroke="black" points="161.93,-60.5 50.68,-60.5 50.68,-24.5 167.93,-24.5 167.93,-54.5 161.93,-60.5"/>
<polyline fill="none" stroke="black" points="161.93,-60.5 161.93,-54.5"/>
<polyline fill="none" stroke="black" points="167.93,-54.5 161.93,-54.5"/>
<text xml:space="preserve" text-anchor="middle" x="109.3" y="-37.45" font-family="Times New Roman,serif" font-size="14.00">Model is available</text>
</g>
<!-- fair:model&#45;&gt;fair:dp_threshold -->
<g id="edge2" class="edge">
<title>fair:model&#45;&gt;fair:dp_threshold</title>
<path fill="none" stroke="black" d="M124.28,-60.8C131,-68.57 139.26,-78.1 147.43,-87.54"/>
<polygon fill="black" stroke="black" points="144.7,-89.73 153.89,-95 149.99,-85.15 144.7,-89.73"/>
</g>
<!-- fair:dataset -->
<g id="fair:dataset" class="node">
<title>fair:dataset</title>
<polygon fill="#9ecae1" stroke="black" points="324.8,-60.5 185.8,-60.5 185.8,-24.5 330.8,-24.5 330.8,-54.5 324.8,-60.5"/>
<polyline fill="none" stroke="black" points="324.8,-60.5 324.8,-54.5"/>
<polyline fill="none" stroke="black" points="330.8,-54.5 324.8,-54.5"/>
<text xml:space="preserve" text-anchor="middle" x="258.3" y="-37.45" font-family="Times New Roman,serif" font-size="14.00">Test dataset is available</text>
</g>
<!-- fair:dataset&#45;&gt;fair:dp_threshold -->
<g id="edge3" class="edge">
<title>fair:dataset&#45;&gt;fair:dp_threshold</title>
<path fill="none" stroke="black" d="M243.13,-60.8C236.31,-68.57 227.95,-78.1 219.66,-87.54"/>
<polygon fill="black" stroke="black" points="217.08,-85.18 213.11,-95.01 222.34,-89.8 217.08,-85.18"/>
</g>
</g>
</svg>
