<?xml version="1.0" encoding="UTF-8" standalone="no"?>
<!DOCTYPE svg PUBLIC "-//W3C//DTD SVG 1.1//EN"
 "http://www.w3.org/Graphics/SVG/1.1/DTD/svg11.dtd">
<!-- Generated by graphviz version 14.1.3 (20260303.0454)
 -->
<!-- Title: deployable Pages: 1 -->
<svg width="628pt" height="357pt"
 viewBox="0.00 0.00 628.00 357.00" xmlns="http://www.w3.org/2000/svg" xmlns:xlink="http://www.w3.org/1999/xlink">
<g id="graph0" class="graph" transform="scale(1 1) rotate(0) translate(4 352.5)">
<title>deployable</title>
<polygon fill="white" stroke="none" points="-4,4 -4,-352.5 623.61,-352.5 623.61,4 -4,4"/>
<text xml:space="preserve" text-anchor="middle" x="309.81" y="-7.2" font-family="Times New Roman,serif" font-size="14.00">deployable</text>
<!-- deployable:assembleConclusion -->
<g id="deployable:assembleConclusion" class="node">
<title>deployable:assembleConclusion</title>
<path fill="lightgrey" stroke="black" d="M377.73,-348.5C377.73,-348.5 273.98,-348.5 273.98,-348.5 267.98,-348.5 261.98,-342.5 261.98,-336.5 261.98,-336.5 261.98,-324.5 261.98,-324.5 261.98,-318.5 267.98,-312.5 273.98,-312.5 273.98,-312.5 377.73,-312.5 377.73,-312.5 383.73,-312.5 389.73,-318.5 389.73,-324.5 389.73,-324.5 389.73,-336.5 389.73,-336.5 389.73,-342.5 383.73,-348.5 377.73,-348.5"/>
<text xml:space="preserve" text-anchor="middle" x="325.85" y="-325.45" font-family="Times New Roman,serif" font-size="14.00">Model is deployable</text>
</g>
<!-- deployable:fair:c -->
<g id="deployable:fair:c" class="node">
<title>deployable:fair:c</title>
<polygon fill="none" stroke="#0072b2" points="306.98,-204.5 216.73,-204.5 216.73,-168.5 306.98,-168.5 306.98,-204.5"/>
<text xml:space="preserve" text-anchor="middle" x="261.85" y="-181.45" font-family="Times New Roman,serif" font-size="14.00">Model is Fair</text>
</g>
<!-- deployable:assembleStrategy -->
<g id="deployable:assembleStrategy" class="node">
<title>deployable:assembleStrategy</title>
<polygon fill="#f0c27f" stroke="black" points="434.79,-258.5 380.32,-276.5 271.39,-276.5 216.92,-258.5 271.39,-240.5 380.32,-240.5 434.79,-258.5"/>
<text xml:space="preserve" text-anchor="middle" x="325.85" y="-253.45" font-family="Times New Roman,serif" font-size="14.00">All conditions are met</text>
</g>
<!-- deployable:fair:c&#45;&gt;deployable:assembleStrategy -->
<g id="edge8" class="edge">
<title>deployable:fair:c&#45;&gt;deployable:assembleStrategy</title>
<path fill="none" stroke="black" d="M277.68,-204.8C285.19,-213.03 294.33,-223.02 302.61,-232.08"/>
<polygon fill="black" stroke="black" points="299.86,-234.26 309.2,-239.28 305.03,-229.54 299.86,-234.26"/>
</g>
<!-- deployable:fair:di_threshold -->
<g id="deployable:fair:di_threshold" class="node">
<title>deployable:fair:di_threshold</title>
<polygon fill="#f0c27f" stroke="black" points="333.71,-114.5 250.28,-132.5 83.43,-132.5 0,-114.5 83.43,-96.5 250.28,-96.5 333.71,-114.5"/>
<text xml:space="preserve" text-anchor="middle" x="166.85" y="-109.45" font-family="Times New Roman,serif" font-size="14.00">Disparate Impact is greater than 0.8</text>
</g>
<!-- deployable:fair:di_threshold&#45;&gt;deployable:fair:c -->
<g id="edge2" class="edge">
<title>deployable:fair:di_threshold&#45;&gt;deployable:fair:c</title>
<path fill="none" stroke="black" d="M190.34,-132.8C202.1,-141.47 216.53,-152.1 229.33,-161.54"/>
<polygon fill="black" stroke="black" points="226.97,-164.14 237.09,-167.26 231.12,-158.51 226.97,-164.14"/>
</g>
<!-- deployable:unified_0 -->
<g id="deployable:unified_0" class="node">
<title>deployable:unified_0</title>
<polygon fill="#9ecae1" stroke="black" points="304.48,-60.5 193.23,-60.5 193.23,-24.5 310.48,-24.5 310.48,-54.5 304.48,-60.5"/>
<polyline fill="none" stroke="black" points="304.48,-60.5 304.48,-54.5"/>
<polyline fill="none" stroke="black" points="310.48,-54.5 304.48,-54.5"/>
<text xml:space="preserve" text-anchor="middle" x="251.85" y="-37.45" font-family="Times New Roman,serif" font-size="14.00">Model is available</text>
</g>
<!-- deployable:unified_0&#45;&gt;deployable:fair:di_threshold -->
<g id="edge4" class="edge">
<title>deployable:unified_0&#45;&gt;deployable:fair:di_threshold</title>
<path fill="none" stroke="black" d="M230.84,-60.8C220.52,-69.3 207.91,-79.69 196.62,-88.99"/>
<polygon fill="black" stroke="black" points="194.58,-86.13 189.09,-95.19 199.03,-91.54 194.58,-86.13"/>
</g>
<!-- deployable:perf:acc_threshold -->
<g id="deployable:perf:acc_threshold" class="node">
<title>deployable:perf:acc_threshold</title>
<polygon fill="#f0c27f" stroke="black" points="619.61,-114.5 552.73,-132.5 418.97,-132.5 352.1,-114.5 418.97,-96.5 552.73,-96.5 619.61,-114.5"/>
<text xml:space="preserve" text-anchor="middle" x="485.85" y="-109.45" font-family="Times New Roman,serif" font-size="14.00">Accuracy is greater than 0.8</text>
</g>
<!-- deployable:unified_0&#45;&gt;deployable:perf:acc_threshold -->
<g id="edge6" class="edge">
<title>deployable:unified_0&#45;&gt;deployable:perf:acc_threshold</title>
<path fill="none" stroke="black" d="M310.3,-60.98C342.67,-70.67 383.1,-82.76 416.99,-92.9"/>
<polygon fill="black" stroke="black" points="415.72,-96.17 426.3,-95.68 417.72,-89.47 415.72,-96.17"/>
</g>
<!-- deployable:unified_1 -->
<g id="deployable:unified_1" class="node">
<title>deployable:unified_1</title>
<polygon fill="#9ecae1" stroke="black" points="509.35,-60.5 370.35,-60.5 370.35,-24.5 515.35,-24.5 515.35,-54.5 509.35,-60.5"/>
<polyline fill="none" stroke="black" points="509.35,-60.5 509.35,-54.5"/>
<polyline fill="none" stroke="black" points="515.35,-54.5 509.35,-54.5"/>
<text xml:space="preserve" text-anchor="middle" x="442.85" y="-37.45" font-family="Times New Roman,serif" font-size="14.00">Test dataset is available</text>
</g>
<!-- deployable:unified_1&#45;&gt;deployable:fair:di_threshold -->
<g id="edge5" class="edge">
<title>deployable:unified_1&#45;&gt;deployable:fair:di_threshold</title>
<path fill="none" stroke="black" d="M373.92,-60.98C335.24,-70.79 286.82,-83.07 246.52,-93.29"/>
<polygon fill="black" stroke="black" points="245.69,-89.9 236.86,-95.75 247.41,-96.68 245.69,-89.9"/>
</g>
<!-- deployable:unified_1&#45;&gt;deployable:perf:acc_threshold -->
<g id="edge7" class="edge">
<title>deployable:unified_1&#45;&gt;deployable:perf:acc_threshold</title>
<path fill="none" stroke="black" d="M453.48,-60.8C458.27,-68.6 464.04,-77.99 469.37,-86.67"/>
<polygon fill="black" stroke="black" points="466.34,-88.42 474.56,-95.11 472.3,-84.75 466.34,-88.42"/>
</g>
<!-- deployable:perf:c -->
<g id="deployable:perf:c" class="node">
<title>deployable:perf:c</title>
<polygon fill="none" stroke="#0072b2" points="502.85,-204.5 372.85,-204.5 372.85,-168.5 502.85,-168.5 502.85,-204.5"/>
<text xml:space="preserve" text-anchor="middle" x="437.85" y="-181.45" font-family="Times New Roman,serif" font-size="14.00">Model is Performant</text>
</g>
<!-- deployable:perf:c&#45;&gt;deployable:assembleStrategy -->
<g id="edge9" class="edge">
<title>deployable:perf:c&#45;&gt;deployable:assembleStrategy</title>
<path fill="none" stroke="black" d="M409.88,-204.98C395.74,-213.82 378.39,-224.66 363.14,-234.2"/>
<polygon fill="black" stroke="black" points="361.38,-231.17 354.76,-239.44 365.09,-237.11 361.38,-231.17"/>
</g>
<!-- deployable:perf:acc_threshold&#45;&gt;deployable:perf:c -->
<g id="edge3" class="edge">
<title>deployable:perf:acc_threshold&#45;&gt;deployable:perf:c</title>
<path fill="none" stroke="black" d="M473.99,-132.8C468.58,-140.69 462.06,-150.2 456.06,-158.95"/>
<polygon fill="black" stroke="black" points="453.21,-156.92 450.44,-167.15 458.98,-160.88 453.21,-156.92"/>
</g>
<!-- deployable:assembleStrategy&#45;&gt;deployable:assembleConclusion -->
<g id="edge1" class="edge">
<title>deployable:assembleStrategy&#45;&gt;deployable:assembleConclusion</title>
<path fill="none" stroke="black" d="M325.85,-276.8C325.85,-284.09 325.85,-292.77 325.85,-300.96"/>
<polygon fill="black" stroke="black" points="322.35,-300.88 325.85,-310.88 329.35,-300.88 322.35,-300.88"/>
</g>
</g>
</svg>
