<?xml version="1.0" encoding="UTF-8" standalone="no"?>
<!DOCTYPE svg PUBLIC "-//W3C//DTD SVG 1.1//EN"
 "http://www.w3.org/Graphics/SVG/1.1/DTD/svg11.dtd">
<!-- Generated by graphviz version 14.1.3 (20260303.0454)
 -->
<!-- Title: fair Pages: 1 -->
<svg width="342pt" height="213pt"
 viewBox="0.00 0.00 342.00 213.00" xmlns="http://www.w3.org/2000/svg" xmlns:xlink="http://www.w3.org/1999/xlink">
<g id="graph0" class="graph" transform="scale(1 1) rotate(0) translate(4 208.5)">
<title>fair</title>
<polygon fill="white" stroke="none" points="-4,4 -4,-208.5 337.71,-208.5 337.71,4 -4,4"/>
<text xml:space="preserve" text-anchor="middle" x="166.85" y="-7.2" font-family="Times New Roman,serif" font-size="14.00">fair</text>
<!-- fair:c -->
<g id="fair:c" class="node">
<title>fair:c</title>
<path fill="lightgrey" stroke="black" d="M199.98,-204.5C199.98,-204.5 133.73,-204.5 133.73,-204.5 127.73,-204.5 121.73,-198.5 121.73,-192.5 121.73,-192.5 121.73,-180.5 121.73,-180.5 121.73,-174.5 127.73,-168.5 133.73,-168.5 133.73,-168.5 199.98,-168.5 199.98,-168.5 205.98,-168.5 211.98,-174.5 211.98,-180.5 211.98,-180.5 211.98,-192.5 211.98,-192.5 211.98,-198.5 205.98,-204.5 199.98,-204.5"/>
<text xml:space="preserve" text-anchor="middle" x="166.85" y="-181.45" font-family="Times New Roman,serif" font-size="14.00">Model is Fair</text>
</g>
<!-- fair:di_threshold -->
<g id="fair:di_threshold" class="node">
<title>fair:di_threshold</title>
<polygon fill="#f0c27f" stroke="black" points="333.71,-114.5 250.28,-132.5 83.43,-132.5 0,-114.5 83.43,-96.5 250.28,-96.5 333.71,-114.5"/>
<text xml:space="preserve" text-anchor="middle" x="166.85" y="-109.45" font-family="Times New Roman,serif" font-size="14.00">Disparate Impact is greater than 0.8</text>
</g>
<!-- fair:di_threshold&#45;&gt;fair:c -->
<g id="edge1" class="edge">
<title>fair:di_threshold&#45;&gt;fair:c</title>
<path fill="none" stroke="black" d="M166.85,-132.8C166.85,-140.09 166.85,-148.77 166.85,-156.96"/>
<polygon fill="black" stroke="black" points="163.35,-156.88 166.85,-166.88 170.35,-156.88 163.35,-156.88"/>
</g>
<!-- fair:model -->
<g id="fair:model" class="node">
<title>fair:model</title>
<polygon fill="#9ecae1" stroke="black" points="145.48,-60.5 34.23,-60.5 34.23,-24.5 151.48,-24.5 151.48,-54.5 145.48,-60.5"/>
<polyline fill="none" stroke="black" points="145.48,-60.5 145.48,-54.5"/>
<polyline fill="none" stroke="black" points="151.48,-54.5 145.48,-54.5"/>
<text xml:space="preserve" text-anchor="middle" x="92.85" y="-37.45" font-family="Times New Roman,serif" font-size="14.00">Model is available</text>
</g>
<!-- fair:model&#45;&gt;fair:di_threshold -->
<g id="edge2" class="edge">
<title>fair:model&#45;&gt;fair:di_threshold</title>
<path fill="none" stroke="black" d="M111.15,-60.8C119.95,-69.13 130.68,-79.28 140.35,-88.43"/>
<polygon fill="black" stroke="black" points="137.75,-90.78 147.42,-95.11 142.56,-85.7 137.75,-90.78"/>
</g>
<!-- fair:dataset -->
<g id="fair:dataset" class="node">
<title>fair:dataset</title>
<polygon fill="#9ecae1" stroke="black" points="308.35,-60.5 169.35,-60.5 169.35,-24.5 314.35,-24.5 314.35,-54.5 308.35,-60.5"/>
<polyline fill="none" stroke="black" points="308.35,-60.5 308.35,-54.5"/>
<polyline fill="none" stroke="black" points="314.35,-54.5 308.35,-54.5"/>
<text xml:space="preserve" text-anchor="middle" x="241.85" y="-37.45" font-family="Times New Roman,serif" font-size="14.00">Test dataset is available</text>
</g>
<!-- fair:dataset&#45;&gt;fair:di_threshold -->
<g id="edge3" class="edge">
<title>fair:dataset&#45;&gt;fair:di_threshold</title>
<path fill="none" stroke="black" d="M223.32,-60.8C214.39,-69.13 203.52,-79.28 193.71,-88.43"/>
<polygon fill="black" stroke="black" points="191.47,-85.74 186.55,-95.12 196.25,-90.86 191.47,-85.74"/>
</g>
</g>
</svg>
