<?xml version="1.0" encoding="UTF-8" standalone="no"?>
<!DOCTYPE svg PUBLIC "-//W3C//DTD SVG 1.1//EN"
 "http://www.w3.org/Graphics/SVG/1.1/DTD/svg11.dtd">
<!-- Generated by graphviz version 14.1.3 (20260303.0454)
 -->
<!-- Title: perf Pages: 1 -->
<svg width="289pt" height="213pt"
 viewBox="0.00 0.00 289.00 213.00" xmlns="http://www.w3.org/2000/svg" xmlns:xlink="http://www.w3.org/1999/xlink">
<g id="graph0" class="graph" transform="scale(1 1) rotate(0) translate(4 208.5)">
<title>perf</title>
<polygon fill="white" stroke="none" points="-4,4 -4,-208.5 285.26,-208.5 285.26,4 -4,4"/>
<text xml:space="preserve" text-anchor="middle" x="140.63" y="-7.2" font-family="Times New Roman,serif" font-size="14.00">perf</text>
<!-- perf:c -->
<g id="perf:c" class="node">
<title>perf:c</title>
<path fill="lightgrey" stroke="black" d="M186.76,-204.5C186.76,-204.5 80.76,-204.5 80.76,-204.5 74.76,-204.5 68.76,-198.5 68.76,-192.5 68.76,-192.5 68.76,-180.5 68.76,-180.5 68.76,-174.5 74.76,-168.5 80.76,-168.5 80.76,-168.5 186.76,-168.5 186.76,-168.5 192.76,-168.5 198.76,-174.5 198.76,-180.5 198.76,-180.5 198.76,-192.5 198.76,-192.5 198.76,-198.5 192.76,-204.5 186.76,-204.5"/>
<text xml:space="preserve" text-anchor="middle" x="133.76" y="-181.45" font-family="Times New Roman,serif" font-size="14.00">Model is Performant</text>
</g>
<!-- perf:acc_threshold -->
<g id="perf:acc_threshold" class="node">
<title>perf:acc_threshold</title>
<polygon fill="#f0c27f" stroke="black" points="267.52,-114.5 200.64,-132.5 66.88,-132.5 0,-114.5 66.88,-96.5 200.64,-96.5 267.52,-114.5"/>
<text xml:space="preserve" text-anchor="middle" x="133.76" y="-109.45" font-family="Times New Roman,serif" font-size="14.00">Accuracy is greater than 0.8</text>
</g>
<!-- perf:acc_threshold&#45;&gt;perf:c -->
<g id="edge1" class="edge">
<title>perf:acc_threshold&#45;&gt;perf:c</title>
<path fill="none" stroke="black" d="M133.76,-132.8C133.76,-140.09 133.76,-148.77 133.76,-156.96"/>
<polygon fill="black" stroke="black" points="130.26,-156.88 133.76,-166.88 137.26,-156.88 130.26,-156.88"/>
</g>
<!-- perf:model -->
<g id="perf:model" class="node">
<title>perf:model</title>
<polygon fill="#9ecae1" stroke="black" points="112.38,-60.5 1.13,-60.5 1.13,-24.5 118.38,-24.5 118.38,-54.5 112.38,-60.5"/>
<polyline fill="none" stroke="black" points="112.38,-60.5 112.38,-54.5"/>
<polyline fill="none" stroke="black" points="118.38,-54.5 112.38,-54.5"/>
<text xml:space="preserve" text-anchor="middle" x="59.76" y="-37.45" font-family="Times New Roman,serif" font-size="14.00">Model is available</text>
</g>
<!-- perf:model&#45;&gt;perf:acc_threshold -->
<g id="edge2" class="edge">
<title>perf:model&#45;&gt;perf:acc_threshold</title>
<path fill="none" stroke="black" d="M78.05,-60.8C86.86,-69.13 97.58,-79.28 107.26,-88.43"/>
<polygon fill="black" stroke="black" points="104.65,-90.78 114.32,-95.11 109.46,-85.7 104.65,-90.78"/>
</g>
<!-- perf:dataset -->
<g id="perf:dataset" class="node">
<title>perf:dataset</title>
<polygon fill="#9ecae1" stroke="black" points="275.26,-60.5 136.26,-60.5 136.26,-24.5 281.26,-24.5 281.26,-54.5 275.26,-60.5"/>
<polyline fill="none" stroke="black" points="275.26,-60.5 275.26,-54.5"/>
<polyline fill="none" stroke="black" points="281.26,-54.5 275.26,-54.5"/>
<text xml:space="preserve" text-anchor="middle" x="208.76" y="-37.45" font-family="Times New Roman,serif" font-size="14.00">Test dataset is available</text>
</g>
<!-- perf:dataset&#45;&gt;perf:acc_threshold -->
<g id="edge3" class="edge">
<title>perf:dataset&#45;&gt;perf:acc_threshold</title>
<path fill="none" stroke="black" d="M190.22,-60.8C181.3,-69.13 170.43,-79.28 160.62,-88.43"/>
<polygon fill="black" stroke="black" points="158.37,-85.74 153.45,-95.12 163.15,-90.86 158.37,-85.74"/>
</g>
</g>
</svg>
